<mxfile host="app.diagrams.net" agent="Mozilla/5.0 (Macintosh; Intel Mac OS X 10_15_7) AppleWebKit/605.1.15 (KHTML, like Gecko) Version/18.3 Safari/605.1.15" version="28.2.0">
  <diagram name="第 1 页" id="sPMmEBT51DOr07PKQUzs">
    <mxGraphModel dx="724" dy="493" grid="1" gridSize="10" guides="1" tooltips="1" connect="1" arrows="1" fold="1" page="1" pageScale="1" pageWidth="827" pageHeight="1169" math="0" shadow="0">
      <root>
        <mxCell id="0" />
        <mxCell id="1" parent="0" />
        <mxCell id="Pf68YXGzQBQTcnj4pZRb-1" value="应变型" style="rounded=0;whiteSpace=wrap;html=1;" parent="1" vertex="1">
          <mxGeometry x="120" y="360" width="80" height="40" as="geometry" />
        </mxCell>
        <mxCell id="Pf68YXGzQBQTcnj4pZRb-2" value="应变-结构面滑移型" style="rounded=0;whiteSpace=wrap;html=1;" parent="1" vertex="1">
          <mxGeometry x="240" y="360" width="80" height="40" as="geometry" />
        </mxCell>
        <mxCell id="Pf68YXGzQBQTcnj4pZRb-3" value="断裂型" style="rounded=0;whiteSpace=wrap;html=1;" parent="1" vertex="1">
          <mxGeometry x="360" y="360" width="80" height="40" as="geometry" />
        </mxCell>
        <mxCell id="Pf68YXGzQBQTcnj4pZRb-4" value="径向链式" style="rounded=0;whiteSpace=wrap;html=1;" parent="1" vertex="1">
          <mxGeometry x="480" y="360" width="80" height="40" as="geometry" />
        </mxCell>
        <mxCell id="Pf68YXGzQBQTcnj4pZRb-5" value="轴向链式" style="rounded=0;whiteSpace=wrap;html=1;" parent="1" vertex="1">
          <mxGeometry x="600" y="360" width="80" height="40" as="geometry" />
        </mxCell>
        <mxCell id="Pf68YXGzQBQTcnj4pZRb-6" value="类型判识" style="rounded=0;whiteSpace=wrap;html=1;" parent="1" vertex="1">
          <mxGeometry x="120" y="310" width="560" height="30" as="geometry" />
        </mxCell>
        <mxCell id="Pf68YXGzQBQTcnj4pZRb-7" value="" style="endArrow=classic;html=1;rounded=0;exitX=0.071;exitY=1;exitDx=0;exitDy=0;exitPerimeter=0;entryX=0.5;entryY=0;entryDx=0;entryDy=0;" parent="1" source="Pf68YXGzQBQTcnj4pZRb-6" target="Pf68YXGzQBQTcnj4pZRb-1" edge="1">
          <mxGeometry width="50" height="50" relative="1" as="geometry">
            <mxPoint x="390" y="450" as="sourcePoint" />
            <mxPoint x="440" y="400" as="targetPoint" />
          </mxGeometry>
        </mxCell>
        <mxCell id="Pf68YXGzQBQTcnj4pZRb-8" value="" style="endArrow=classic;html=1;rounded=0;exitX=0.071;exitY=1;exitDx=0;exitDy=0;exitPerimeter=0;entryX=0.5;entryY=0;entryDx=0;entryDy=0;" parent="1" edge="1">
          <mxGeometry width="50" height="50" relative="1" as="geometry">
            <mxPoint x="279.88" y="340" as="sourcePoint" />
            <mxPoint x="279.88" y="360" as="targetPoint" />
          </mxGeometry>
        </mxCell>
        <mxCell id="Pf68YXGzQBQTcnj4pZRb-9" value="" style="endArrow=classic;html=1;rounded=0;exitX=0.071;exitY=1;exitDx=0;exitDy=0;exitPerimeter=0;entryX=0.5;entryY=0;entryDx=0;entryDy=0;" parent="1" edge="1">
          <mxGeometry width="50" height="50" relative="1" as="geometry">
            <mxPoint x="399.88" y="340" as="sourcePoint" />
            <mxPoint x="399.88" y="360" as="targetPoint" />
          </mxGeometry>
        </mxCell>
        <mxCell id="Pf68YXGzQBQTcnj4pZRb-10" value="" style="endArrow=classic;html=1;rounded=0;exitX=0.071;exitY=1;exitDx=0;exitDy=0;exitPerimeter=0;entryX=0.5;entryY=0;entryDx=0;entryDy=0;" parent="1" edge="1">
          <mxGeometry width="50" height="50" relative="1" as="geometry">
            <mxPoint x="519.88" y="340" as="sourcePoint" />
            <mxPoint x="519.88" y="360" as="targetPoint" />
          </mxGeometry>
        </mxCell>
        <mxCell id="Pf68YXGzQBQTcnj4pZRb-11" value="" style="endArrow=classic;html=1;rounded=0;exitX=0.071;exitY=1;exitDx=0;exitDy=0;exitPerimeter=0;entryX=0.5;entryY=0;entryDx=0;entryDy=0;" parent="1" edge="1">
          <mxGeometry width="50" height="50" relative="1" as="geometry">
            <mxPoint x="639.88" y="340" as="sourcePoint" />
            <mxPoint x="639.88" y="360" as="targetPoint" />
          </mxGeometry>
        </mxCell>
        <mxCell id="okz--c39hczWxwvZW41a-1" value="应变型预警方法" style="rounded=0;whiteSpace=wrap;html=1;" vertex="1" parent="1">
          <mxGeometry x="120" y="420" width="80" height="110" as="geometry" />
        </mxCell>
        <mxCell id="okz--c39hczWxwvZW41a-2" value="应变-结构面滑移型预警方法" style="rounded=0;whiteSpace=wrap;html=1;" vertex="1" parent="1">
          <mxGeometry x="240" y="420" width="80" height="110" as="geometry" />
        </mxCell>
        <mxCell id="okz--c39hczWxwvZW41a-3" value="断裂型预警方法" style="rounded=0;whiteSpace=wrap;html=1;" vertex="1" parent="1">
          <mxGeometry x="360" y="420" width="80" height="110" as="geometry" />
        </mxCell>
        <mxCell id="okz--c39hczWxwvZW41a-4" value="径向链式预警方法" style="rounded=0;whiteSpace=wrap;html=1;" vertex="1" parent="1">
          <mxGeometry x="480" y="420" width="80" height="110" as="geometry" />
        </mxCell>
        <mxCell id="okz--c39hczWxwvZW41a-5" value="轴向链式预警方法" style="rounded=0;whiteSpace=wrap;html=1;" vertex="1" parent="1">
          <mxGeometry x="600" y="420" width="80" height="110" as="geometry" />
        </mxCell>
        <mxCell id="okz--c39hczWxwvZW41a-6" value="" style="endArrow=classic;html=1;rounded=0;exitX=0.071;exitY=1;exitDx=0;exitDy=0;exitPerimeter=0;entryX=0.5;entryY=0;entryDx=0;entryDy=0;" edge="1" parent="1">
          <mxGeometry width="50" height="50" relative="1" as="geometry">
            <mxPoint x="159" y="400" as="sourcePoint" />
            <mxPoint x="159" y="420" as="targetPoint" />
          </mxGeometry>
        </mxCell>
        <mxCell id="okz--c39hczWxwvZW41a-7" value="" style="endArrow=classic;html=1;rounded=0;exitX=0.071;exitY=1;exitDx=0;exitDy=0;exitPerimeter=0;entryX=0.5;entryY=0;entryDx=0;entryDy=0;" edge="1" parent="1">
          <mxGeometry width="50" height="50" relative="1" as="geometry">
            <mxPoint x="278.88" y="400" as="sourcePoint" />
            <mxPoint x="278.88" y="420" as="targetPoint" />
          </mxGeometry>
        </mxCell>
        <mxCell id="okz--c39hczWxwvZW41a-8" value="" style="endArrow=classic;html=1;rounded=0;exitX=0.071;exitY=1;exitDx=0;exitDy=0;exitPerimeter=0;entryX=0.5;entryY=0;entryDx=0;entryDy=0;" edge="1" parent="1">
          <mxGeometry width="50" height="50" relative="1" as="geometry">
            <mxPoint x="398.88" y="400" as="sourcePoint" />
            <mxPoint x="398.88" y="420" as="targetPoint" />
          </mxGeometry>
        </mxCell>
        <mxCell id="okz--c39hczWxwvZW41a-9" value="" style="endArrow=classic;html=1;rounded=0;exitX=0.071;exitY=1;exitDx=0;exitDy=0;exitPerimeter=0;entryX=0.5;entryY=0;entryDx=0;entryDy=0;" edge="1" parent="1">
          <mxGeometry width="50" height="50" relative="1" as="geometry">
            <mxPoint x="518.88" y="400" as="sourcePoint" />
            <mxPoint x="518.88" y="420" as="targetPoint" />
          </mxGeometry>
        </mxCell>
        <mxCell id="okz--c39hczWxwvZW41a-10" value="" style="endArrow=classic;html=1;rounded=0;exitX=0.071;exitY=1;exitDx=0;exitDy=0;exitPerimeter=0;entryX=0.5;entryY=0;entryDx=0;entryDy=0;" edge="1" parent="1">
          <mxGeometry width="50" height="50" relative="1" as="geometry">
            <mxPoint x="638.88" y="400" as="sourcePoint" />
            <mxPoint x="638.88" y="420" as="targetPoint" />
          </mxGeometry>
        </mxCell>
      </root>
    </mxGraphModel>
  </diagram>
</mxfile>
